<svg width="30" height="30" viewBox="0 0 30 30" fill="none" xmlns="http://www.w3.org/2000/svg">
<path d="M27.7532 5.17236H2.24678C1.00588 5.17236 0 6.17824 0 7.41914V22.5808C0 23.8216 1.00588 24.8276 2.24678 24.8276H27.7532C28.9941 24.8276 30 23.8217 30 22.5808V7.41914C30 6.17824 28.9941 5.17236 27.7532 5.17236Z" fill="#F5F5F5"/>
<path d="M0.123535 6.68432H29.8763C29.5719 5.80441 28.7366 5.17236 27.7532 5.17236H2.24674C1.2633 5.17236 0.428047 5.80441 0.123535 6.68432Z" fill="#FF4B55"/>
<path d="M30 11.2201H0V12.732H30V11.2201Z" fill="#FF4B55"/>
<path d="M30 8.19604H0V9.70794H30V8.19604Z" fill="#FF4B55"/>
<path d="M0 15.2387C0 15.5244 0.231621 15.756 0.517266 15.756H30V14.244H0V15.2387Z" fill="#FF4B55"/>
<path d="M30 20.2921H0V21.8041H30V20.2921Z" fill="#FF4B55"/>
<path d="M29.8764 23.3156H0.123535C0.428047 24.1955 1.26336 24.8275 2.24674 24.8275H27.7532C28.7366 24.8275 29.5719 24.1955 29.8764 23.3156Z" fill="#FF4B55"/>
<path d="M30 17.2681H0V18.78H30V17.2681Z" fill="#FF4B55"/>
<path d="M0.517266 15.756H13.4483C13.734 15.756 13.9656 15.5244 13.9656 15.2387V5.68963C13.9656 5.40393 13.734 5.17236 13.4483 5.17236H2.24678C1.00588 5.17242 0 6.1783 0 7.4192V15.2387C0 15.5244 0.231621 15.756 0.517266 15.756Z" fill="#41479B"/>
<path d="M1.45233 6.35976L1.56682 6.70312L1.92875 6.70588C1.97563 6.70629 1.99502 6.76605 1.95735 6.79388L1.66619 7.00886L1.77541 7.35392C1.78959 7.39857 1.73867 7.4356 1.70053 7.4083L1.4061 7.19789L1.11166 7.40836C1.07352 7.43566 1.02272 7.39863 1.03678 7.35398L1.146 7.00892L0.854845 6.79394C0.817169 6.76605 0.836564 6.70629 0.883439 6.70593L1.24537 6.70318L1.35986 6.35982C1.37463 6.31529 1.43744 6.31529 1.45233 6.35976Z" fill="#F5F5F5"/>
<path d="M1.45233 8.15574L1.56682 8.4991L1.92875 8.50185C1.97563 8.50226 1.99502 8.56197 1.95735 8.58986L1.66619 8.8049L1.77541 9.14996C1.78959 9.19461 1.73867 9.23164 1.70053 9.20433L1.4061 8.99392L1.11166 9.20439C1.07352 9.23164 1.02272 9.19467 1.03678 9.15002L1.146 8.80496L0.854845 8.58992C0.817169 8.56203 0.836564 8.50232 0.883439 8.50191L1.24537 8.49916L1.35986 8.1558C1.37463 8.11133 1.43744 8.11133 1.45233 8.15574Z" fill="#F5F5F5"/>
<path d="M1.45233 9.95193L1.56682 10.2953L1.92875 10.298C1.97563 10.2985 1.99502 10.3582 1.95735 10.386L1.66619 10.6011L1.77541 10.9461C1.78959 10.9908 1.73867 11.0278 1.70053 11.0005L1.4061 10.7901L1.11166 11.0006C1.07352 11.0278 1.02272 10.9909 1.03678 10.9462L1.146 10.6011L0.854845 10.3861C0.817169 10.3582 0.836564 10.2985 0.883439 10.2981L1.24537 10.2953L1.35986 9.95199C1.37463 9.90745 1.43744 9.90745 1.45233 9.95193Z" fill="#F5F5F5"/>
<path d="M1.45233 11.7481L1.56682 12.0914L1.92875 12.0942C1.97563 12.0946 1.99502 12.1544 1.95735 12.1822L1.66619 12.3972L1.77541 12.7423C1.78959 12.7869 1.73867 12.824 1.70053 12.7967L1.4061 12.5863L1.11166 12.7967C1.07352 12.824 1.02272 12.787 1.03678 12.7423L1.146 12.3973L0.854845 12.1822C0.817169 12.1545 0.836564 12.0947 0.883439 12.0942L1.24537 12.0915L1.35986 11.7481C1.37463 11.7036 1.43744 11.7036 1.45233 11.7481Z" fill="#F5F5F5"/>
<path d="M1.45233 13.5443L1.56682 13.8876L1.92875 13.8904C1.97563 13.8908 1.99502 13.9505 1.95735 13.9784L1.66619 14.1934L1.77541 14.5385C1.78959 14.5832 1.73867 14.6202 1.70053 14.5929L1.4061 14.3825L1.11166 14.5929C1.07352 14.6202 1.02272 14.5832 1.03678 14.5386L1.146 14.1935L0.854845 13.9785C0.817169 13.9506 0.836564 13.8909 0.883439 13.8905L1.24537 13.8877L1.35986 13.5443C1.37463 13.4999 1.43744 13.4999 1.45233 13.5443Z" fill="#F5F5F5"/>
<path d="M2.84637 7.24022L2.96086 7.58358L3.32279 7.58633C3.36967 7.58674 3.38906 7.64651 3.35139 7.67434L3.06024 7.88938L3.16945 8.23444C3.18363 8.27909 3.13272 8.31612 3.09457 8.28881L2.80014 8.07834L2.5057 8.28881C2.46756 8.31606 2.41676 8.27909 2.43082 8.23444L2.54004 7.88938L2.24889 7.67434C2.21121 7.64645 2.23061 7.58674 2.27748 7.58633L2.63942 7.58358L2.75391 7.24022C2.76867 7.19581 2.83154 7.19581 2.84637 7.24022Z" fill="#F5F5F5"/>
<path d="M2.84637 9.03641L2.96086 9.37977L3.32279 9.38252C3.36967 9.38293 3.38906 9.4427 3.35139 9.47053L3.06024 9.68557L3.16945 10.0306C3.18363 10.0753 3.13272 10.1123 3.09457 10.085L2.80014 9.87453L2.5057 10.085C2.46756 10.1122 2.41676 10.0753 2.43082 10.0306L2.54004 9.68557L2.24889 9.47053C2.21121 9.44275 2.23061 9.38293 2.27748 9.38252L2.63942 9.37977L2.75391 9.03641C2.76867 8.99193 2.83154 8.99193 2.84637 9.03641Z" fill="#F5F5F5"/>
<path d="M2.84637 10.8325L2.96086 11.1759L3.32279 11.1787C3.36967 11.1791 3.38906 11.2388 3.35139 11.2667L3.06024 11.4817L3.16945 11.8268C3.18363 11.8714 3.13272 11.9084 3.09457 11.8811L2.80014 11.6707L2.5057 11.8811C2.46756 11.9084 2.41676 11.8714 2.43082 11.8268L2.54004 11.4817L2.24889 11.2667C2.21121 11.2388 2.23061 11.1791 2.27748 11.1787L2.63942 11.1759L2.75391 10.8325C2.76867 10.7881 2.83154 10.7881 2.84637 10.8325Z" fill="#F5F5F5"/>
<path d="M2.84637 12.6288L2.96086 12.9721L3.32279 12.9749C3.36967 12.9753 3.38906 13.035 3.35139 13.0629L3.06024 13.2779L3.16945 13.623C3.18363 13.6676 3.13272 13.7047 3.09457 13.6774L2.80014 13.4669L2.5057 13.6774C2.46756 13.7047 2.41676 13.6676 2.43082 13.623L2.54004 13.2779L2.24889 13.0629C2.21121 13.035 2.23061 12.9753 2.27748 12.9749L2.63942 12.9721L2.75391 12.6288C2.76867 12.5844 2.83154 12.5844 2.84637 12.6288Z" fill="#F5F5F5"/>
<path d="M4.24041 6.35965L4.3549 6.70301L4.71684 6.70576C4.76371 6.70617 4.78311 6.76594 4.74543 6.79377L4.45428 7.00875L4.5635 7.35381C4.57768 7.39846 4.52676 7.43549 4.48861 7.40818L4.19418 7.19771L3.89975 7.40818C3.8616 7.43549 3.8108 7.39846 3.82486 7.35381L3.93408 7.00875L3.64293 6.79377C3.60526 6.76588 3.62465 6.70611 3.67152 6.70576L4.03346 6.70301L4.14795 6.35965C4.16272 6.31518 4.22559 6.31518 4.24041 6.35965Z" fill="#F5F5F5"/>
<path d="M4.24041 8.15575L4.3549 8.49911L4.71684 8.50186C4.76371 8.50227 4.78311 8.56198 4.74543 8.58987L4.45428 8.80491L4.5635 9.14997C4.57768 9.19461 4.52676 9.23165 4.48861 9.20434L4.19418 8.99387L3.89975 9.20434C3.8616 9.23159 3.8108 9.19461 3.82486 9.14997L3.93408 8.80491L3.64293 8.58987C3.60526 8.56198 3.62465 8.50227 3.67152 8.50186L4.03346 8.49911L4.14795 8.15575C4.16272 8.11133 4.22559 8.11133 4.24041 8.15575Z" fill="#F5F5F5"/>
<path d="M4.24041 9.95193L4.3549 10.2953L4.71684 10.298C4.76371 10.2985 4.78311 10.3582 4.74543 10.3861L4.45428 10.6011L4.5635 10.9462C4.57768 10.9908 4.52676 11.0278 4.48861 11.0005L4.19418 10.7901L3.89975 11.0005C3.8616 11.0278 3.8108 10.9909 3.82486 10.9462L3.93408 10.6011L3.64293 10.3861C3.60526 10.3582 3.62465 10.2985 3.67152 10.298L4.03346 10.2953L4.14795 9.95193C4.16272 9.90746 4.22559 9.90746 4.24041 9.95193Z" fill="#F5F5F5"/>
<path d="M4.24041 11.7481L4.3549 12.0914L4.71684 12.0942C4.76371 12.0946 4.78311 12.1544 4.74543 12.1822L4.45428 12.3972L4.5635 12.7423C4.57768 12.7869 4.52676 12.824 4.48861 12.7967L4.19418 12.5862L3.89975 12.7967C3.8616 12.8239 3.8108 12.7869 3.82486 12.7423L3.93408 12.3972L3.64293 12.1822C3.60526 12.1544 3.62465 12.0946 3.67152 12.0942L4.03346 12.0914L4.14795 11.7481C4.16272 11.7036 4.22559 11.7036 4.24041 11.7481Z" fill="#F5F5F5"/>
<path d="M4.24041 13.5443L4.3549 13.8877L4.71684 13.8904C4.76371 13.8908 4.78311 13.9505 4.74543 13.9784L4.45428 14.1935L4.5635 14.5385C4.57768 14.5832 4.52676 14.6202 4.48861 14.5929L4.19418 14.3824L3.89975 14.5929C3.8616 14.6201 3.8108 14.5832 3.82486 14.5385L3.93408 14.1935L3.64293 13.9784C3.60526 13.9505 3.62465 13.8908 3.67152 13.8904L4.03346 13.8877L4.14795 13.5443C4.16272 13.4999 4.22559 13.4999 4.24041 13.5443Z" fill="#F5F5F5"/>
<path d="M5.63494 7.24022L5.74944 7.58358L6.11137 7.58633C6.15824 7.58674 6.17764 7.64651 6.13996 7.67434L5.84881 7.88938L5.95803 8.23444C5.97221 8.27909 5.92129 8.31612 5.88315 8.28881L5.58871 8.07834L5.29428 8.28881C5.25613 8.31606 5.20533 8.27909 5.2194 8.23444L5.32861 7.88938L5.03746 7.67434C4.99979 7.64645 5.01918 7.58674 5.06606 7.58633L5.42799 7.58358L5.54248 7.24022C5.55719 7.19581 5.62012 7.19581 5.63494 7.24022Z" fill="#F5F5F5"/>
<path d="M5.63494 9.03641L5.74944 9.37977L6.11137 9.38252C6.15824 9.38293 6.17764 9.4427 6.13996 9.47053L5.84881 9.68557L5.95803 10.0306C5.97221 10.0753 5.92129 10.1123 5.88315 10.085L5.58871 9.87453L5.29428 10.085C5.25613 10.1122 5.20533 10.0753 5.2194 10.0306L5.32861 9.68557L5.03746 9.47053C4.99979 9.44275 5.01918 9.38293 5.06606 9.38252L5.42799 9.37977L5.54248 9.03641C5.55719 8.99193 5.62012 8.99193 5.63494 9.03641Z" fill="#F5F5F5"/>
<path d="M5.63494 10.8325L5.74944 11.1759L6.11137 11.1787C6.15824 11.1791 6.17764 11.2388 6.13996 11.2667L5.84881 11.4817L5.95803 11.8268C5.97221 11.8714 5.92129 11.9084 5.88315 11.8811L5.58871 11.6707L5.29428 11.8811C5.25613 11.9084 5.20533 11.8714 5.2194 11.8268L5.32861 11.4817L5.03746 11.2667C4.99979 11.2388 5.01918 11.1791 5.06606 11.1787L5.42799 11.1759L5.54248 10.8325C5.55719 10.7881 5.62012 10.7881 5.63494 10.8325Z" fill="#F5F5F5"/>
<path d="M5.63494 12.6288L5.74944 12.9721L6.11137 12.9749C6.15824 12.9753 6.17764 13.035 6.13996 13.0629L5.84881 13.2779L5.95803 13.623C5.97221 13.6676 5.92129 13.7047 5.88315 13.6774L5.58871 13.4669L5.29428 13.6774C5.25613 13.7047 5.20533 13.6676 5.2194 13.623L5.32861 13.2779L5.03746 13.0629C4.99979 13.035 5.01918 12.9753 5.06606 12.9749L5.42799 12.9721L5.54248 12.6288C5.55719 12.5844 5.62012 12.5844 5.63494 12.6288Z" fill="#F5F5F5"/>
<path d="M7.02904 6.35964L7.14354 6.703L7.50547 6.70575C7.55235 6.70616 7.57174 6.76593 7.53406 6.79376L7.24291 7.00874L7.35213 7.3538C7.36631 7.39845 7.31539 7.43548 7.27725 7.40818L6.98276 7.19777L6.68832 7.40823C6.65018 7.43554 6.59938 7.39851 6.61344 7.35386L6.72266 7.0088L6.43151 6.79382C6.39383 6.76593 6.41322 6.70616 6.4601 6.70581L6.82203 6.70306L6.93653 6.3597C6.95135 6.31517 7.01422 6.31517 7.02904 6.35964Z" fill="#F5F5F5"/>
<path d="M7.02904 8.15575L7.14354 8.49911L7.50547 8.50186C7.55235 8.50227 7.57174 8.56198 7.53406 8.58987L7.24291 8.80491L7.35213 9.14997C7.36631 9.19461 7.31539 9.23165 7.27725 9.20434L6.98276 8.99387L6.68832 9.20434C6.65018 9.23159 6.59938 9.19461 6.61344 9.14997L6.72266 8.80491L6.43151 8.58987C6.39383 8.56198 6.41322 8.50227 6.4601 8.50186L6.82203 8.49911L6.93653 8.15575C6.95135 8.11133 7.01422 8.11133 7.02904 8.15575Z" fill="#F5F5F5"/>
<path d="M7.02904 9.95194L7.14354 10.2953L7.50547 10.2981C7.55235 10.2985 7.57174 10.3582 7.53406 10.3861L7.24291 10.6011L7.35213 10.9462C7.36631 10.9908 7.31539 11.0278 7.27725 11.0005L6.98276 10.79L6.68832 11.0005C6.65018 11.0277 6.59938 10.9907 6.61344 10.9461L6.72266 10.601L6.43151 10.386C6.39383 10.3581 6.41322 10.2984 6.4601 10.298L6.82203 10.2952L6.93653 9.95188C6.95135 9.90747 7.01422 9.90747 7.02904 9.95194Z" fill="#F5F5F5"/>
<path d="M7.02904 11.7481L7.14354 12.0914L7.50547 12.0942C7.55235 12.0946 7.57174 12.1544 7.53406 12.1822L7.24291 12.3972L7.35213 12.7423C7.36631 12.7869 7.31539 12.824 7.27725 12.7967L6.98276 12.5862L6.68832 12.7967C6.65018 12.8239 6.59938 12.7869 6.61344 12.7423L6.72266 12.3972L6.43151 12.1822C6.39383 12.1544 6.41322 12.0946 6.4601 12.0942L6.82203 12.0914L6.93653 11.7481C6.95135 11.7036 7.01422 11.7036 7.02904 11.7481Z" fill="#F5F5F5"/>
<path d="M7.02904 13.5443L7.14354 13.8877L7.50547 13.8904C7.55235 13.8908 7.57174 13.9505 7.53406 13.9784L7.24291 14.1935L7.35213 14.5385C7.36631 14.5832 7.31539 14.6202 7.27725 14.5929L6.98276 14.3824L6.68832 14.5929C6.65018 14.6201 6.59938 14.5832 6.61344 14.5385L6.72266 14.1935L6.43151 13.9784C6.39383 13.9505 6.41322 13.8908 6.4601 13.8904L6.82203 13.8877L6.93653 13.5443C6.95135 13.4999 7.01422 13.4999 7.02904 13.5443Z" fill="#F5F5F5"/>
<path d="M8.42303 7.24022L8.53752 7.58358L8.89945 7.58633C8.94633 7.58674 8.96572 7.64651 8.92805 7.67434L8.6369 7.88938L8.74611 8.23444C8.76029 8.27909 8.70938 8.31612 8.67123 8.28881L8.3768 8.07834L8.08236 8.28881C8.04422 8.31606 7.99342 8.27909 8.00748 8.23444L8.1167 7.88938L7.82555 7.67434C7.78787 7.64645 7.80727 7.58674 7.85414 7.58633L8.21608 7.58358L8.33057 7.24022C8.34539 7.19581 8.4082 7.19581 8.42303 7.24022Z" fill="#F5F5F5"/>
<path d="M8.42303 9.03641L8.53752 9.37977L8.89945 9.38252C8.94633 9.38293 8.96572 9.4427 8.92805 9.47053L8.6369 9.68557L8.74611 10.0306C8.76029 10.0753 8.70938 10.1123 8.67123 10.085L8.3768 9.87453L8.08236 10.085C8.04422 10.1122 7.99342 10.0753 8.00748 10.0306L8.1167 9.68557L7.82555 9.47053C7.78787 9.44275 7.80727 9.38293 7.85414 9.38252L8.21608 9.37977L8.33057 9.03641C8.34539 8.99193 8.4082 8.99193 8.42303 9.03641Z" fill="#F5F5F5"/>
<path d="M8.42303 10.8325L8.53752 11.1759L8.89945 11.1787C8.94633 11.1791 8.96572 11.2388 8.92805 11.2667L8.6369 11.4817L8.74611 11.8268C8.76029 11.8714 8.70938 11.9084 8.67123 11.8811L8.3768 11.6707L8.08236 11.8811C8.04422 11.9084 7.99342 11.8714 8.00748 11.8268L8.1167 11.4817L7.82555 11.2667C7.78787 11.2388 7.80727 11.1791 7.85414 11.1787L8.21608 11.1759L8.33057 10.8325C8.34539 10.7881 8.4082 10.7881 8.42303 10.8325Z" fill="#F5F5F5"/>
<path d="M8.42303 12.6288L8.53752 12.9721L8.89945 12.9749C8.94633 12.9753 8.96572 13.035 8.92805 13.0629L8.6369 13.2779L8.74611 13.623C8.76029 13.6676 8.70938 13.7047 8.67123 13.6774L8.3768 13.4669L8.08236 13.6774C8.04422 13.7047 7.99342 13.6676 8.00748 13.623L8.1167 13.2779L7.82555 13.0629C7.78787 13.035 7.80727 12.9753 7.85414 12.9749L8.21608 12.9721L8.33057 12.6288C8.34539 12.5844 8.4082 12.5844 8.42303 12.6288Z" fill="#F5F5F5"/>
<path d="M9.81707 6.35965L9.93156 6.70301L10.2935 6.70576C10.3404 6.70617 10.3598 6.76594 10.3221 6.79377L10.0309 7.00875L10.1402 7.35381C10.1543 7.39846 10.1034 7.43549 10.0653 7.40818L9.77084 7.19771L9.47641 7.40818C9.43826 7.43549 9.38746 7.39846 9.40152 7.35381L9.51074 7.00875L9.21959 6.79377C9.18192 6.76588 9.20131 6.70611 9.24818 6.70576L9.61012 6.70301L9.72461 6.35965C9.73932 6.31518 9.80225 6.31518 9.81707 6.35965Z" fill="#F5F5F5"/>
<path d="M9.81707 8.15575L9.93156 8.49911L10.2935 8.50186C10.3404 8.50227 10.3598 8.56198 10.3221 8.58987L10.0309 8.80491L10.1402 9.14997C10.1543 9.19461 10.1034 9.23165 10.0653 9.20434L9.77084 8.99387L9.47641 9.20434C9.43826 9.23159 9.38746 9.19461 9.40152 9.14997L9.51074 8.80491L9.21959 8.58987C9.18192 8.56198 9.20131 8.50227 9.24818 8.50186L9.61012 8.49911L9.72461 8.15575C9.73932 8.11133 9.80225 8.11133 9.81707 8.15575Z" fill="#F5F5F5"/>
<path d="M9.81707 9.95193L9.93156 10.2953L10.2935 10.298C10.3404 10.2985 10.3598 10.3582 10.3221 10.3861L10.0309 10.6011L10.1402 10.9462C10.1543 10.9908 10.1034 11.0278 10.0653 11.0005L9.77084 10.7901L9.47641 11.0005C9.43826 11.0278 9.38746 10.9909 9.40152 10.9462L9.51074 10.6011L9.21959 10.3861C9.18192 10.3582 9.20131 10.2985 9.24818 10.298L9.61012 10.2953L9.72461 9.95193C9.73932 9.90746 9.80225 9.90746 9.81707 9.95193Z" fill="#F5F5F5"/>
<path d="M9.81707 11.7481L9.93156 12.0914L10.2935 12.0942C10.3404 12.0946 10.3598 12.1544 10.3221 12.1822L10.0309 12.3972L10.1402 12.7423C10.1543 12.7869 10.1034 12.824 10.0653 12.7967L9.77084 12.5862L9.47641 12.7967C9.43826 12.8239 9.38746 12.7869 9.40152 12.7423L9.51074 12.3972L9.21959 12.1822C9.18192 12.1544 9.20131 12.0946 9.24818 12.0942L9.61012 12.0914L9.72461 11.7481C9.73932 11.7036 9.80225 11.7036 9.81707 11.7481Z" fill="#F5F5F5"/>
<path d="M9.81707 13.5443L9.93156 13.8877L10.2935 13.8904C10.3404 13.8908 10.3598 13.9505 10.3221 13.9784L10.0309 14.1935L10.1402 14.5385C10.1543 14.5832 10.1034 14.6202 10.0653 14.5929L9.77084 14.3824L9.47641 14.5929C9.43826 14.6201 9.38746 14.5832 9.40152 14.5385L9.51074 14.1935L9.21959 13.9784C9.18192 13.9505 9.20131 13.8908 9.24818 13.8904L9.61012 13.8877L9.72461 13.5443C9.73932 13.4999 9.80225 13.4999 9.81707 13.5443Z" fill="#F5F5F5"/>
<path d="M11.2111 7.24022L11.3256 7.58358L11.6875 7.58633C11.7344 7.58674 11.7538 7.64651 11.7161 7.67434L11.425 7.88938L11.5342 8.23444C11.5484 8.27909 11.4975 8.31612 11.4593 8.28881L11.1649 8.07834L10.8705 8.28881C10.8323 8.31606 10.7815 8.27909 10.7956 8.23444L10.9048 7.88938L10.6136 7.67434C10.576 7.64645 10.5954 7.58674 10.6422 7.58633L11.0042 7.58358L11.1187 7.24022C11.1334 7.19581 11.1963 7.19581 11.2111 7.24022Z" fill="#F5F5F5"/>
<path d="M11.2111 9.03641L11.3256 9.37977L11.6875 9.38252C11.7344 9.38293 11.7538 9.4427 11.7161 9.47053L11.425 9.68557L11.5342 10.0306C11.5484 10.0753 11.4975 10.1123 11.4593 10.085L11.1649 9.87453L10.8705 10.085C10.8323 10.1122 10.7815 10.0753 10.7956 10.0306L10.9048 9.68557L10.6136 9.47053C10.576 9.44275 10.5954 9.38293 10.6422 9.38252L11.0042 9.37977L11.1187 9.03641C11.1334 8.99193 11.1963 8.99193 11.2111 9.03641Z" fill="#F5F5F5"/>
<path d="M11.2111 10.8325L11.3256 11.1759L11.6875 11.1787C11.7344 11.1791 11.7538 11.2388 11.7161 11.2667L11.425 11.4817L11.5342 11.8268C11.5484 11.8714 11.4975 11.9084 11.4593 11.8811L11.1649 11.6707L10.8705 11.8811C10.8323 11.9084 10.7815 11.8714 10.7956 11.8268L10.9048 11.4817L10.6136 11.2667C10.576 11.2388 10.5954 11.1791 10.6422 11.1787L11.0042 11.1759L11.1187 10.8325C11.1334 10.7881 11.1963 10.7881 11.2111 10.8325Z" fill="#F5F5F5"/>
<path d="M11.2111 12.6288L11.3256 12.9721L11.6875 12.9749C11.7344 12.9753 11.7538 13.035 11.7161 13.0629L11.425 13.2779L11.5342 13.623C11.5484 13.6676 11.4975 13.7047 11.4593 13.6774L11.1649 13.4669L10.8705 13.6774C10.8323 13.7047 10.7815 13.6676 10.7956 13.623L10.9048 13.2779L10.6136 13.0629C10.576 13.035 10.5954 12.9753 10.6422 12.9749L11.0042 12.9721L11.1187 12.6288C11.1334 12.5844 11.1963 12.5844 11.2111 12.6288Z" fill="#F5F5F5"/>
<path d="M12.6056 6.35965L12.7201 6.70301L13.0821 6.70576C13.1289 6.70617 13.1483 6.76594 13.1107 6.79377L12.8195 7.00875L12.9287 7.35381C12.9429 7.39846 12.892 7.43549 12.8538 7.40818L12.5594 7.19771L12.265 7.40818C12.2268 7.43549 12.176 7.39846 12.1901 7.35381L12.2993 7.00875L12.0082 6.79377C11.9705 6.76588 11.9899 6.70611 12.0368 6.70576L12.3987 6.70301L12.5132 6.35965C12.528 6.31518 12.5908 6.31518 12.6056 6.35965Z" fill="#F5F5F5"/>
<path d="M12.6056 8.15575L12.7201 8.49911L13.0821 8.50186C13.1289 8.50227 13.1483 8.56198 13.1107 8.58987L12.8195 8.80491L12.9287 9.14997C12.9429 9.19461 12.892 9.23165 12.8538 9.20434L12.5594 8.99387L12.265 9.20434C12.2268 9.23159 12.176 9.19461 12.1901 9.14997L12.2993 8.80491L12.0082 8.58987C11.9705 8.56198 11.9899 8.50227 12.0368 8.50186L12.3987 8.49911L12.5132 8.15575C12.528 8.11133 12.5908 8.11133 12.6056 8.15575Z" fill="#F5F5F5"/>
<path d="M12.6056 9.95193L12.7201 10.2953L13.0821 10.298C13.1289 10.2985 13.1483 10.3582 13.1107 10.3861L12.8195 10.6011L12.9287 10.9462C12.9429 10.9908 12.892 11.0278 12.8538 11.0005L12.5594 10.7901L12.265 11.0005C12.2268 11.0278 12.176 10.9909 12.1901 10.9462L12.2993 10.6011L12.0082 10.3861C11.9705 10.3582 11.9899 10.2985 12.0368 10.298L12.3987 10.2953L12.5132 9.95193C12.528 9.90746 12.5908 9.90746 12.6056 9.95193Z" fill="#F5F5F5"/>
<path d="M12.6056 11.7481L12.7201 12.0914L13.0821 12.0942C13.1289 12.0946 13.1483 12.1544 13.1107 12.1822L12.8195 12.3972L12.9287 12.7423C12.9429 12.7869 12.892 12.824 12.8538 12.7967L12.5594 12.5862L12.265 12.7967C12.2268 12.8239 12.176 12.7869 12.1901 12.7423L12.2993 12.3972L12.0082 12.1822C11.9705 12.1544 11.9899 12.0946 12.0368 12.0942L12.3987 12.0914L12.5132 11.7481C12.528 11.7036 12.5908 11.7036 12.6056 11.7481Z" fill="#F5F5F5"/>
<path d="M12.6056 13.5443L12.7201 13.8877L13.0821 13.8904C13.1289 13.8908 13.1483 13.9505 13.1107 13.9784L12.8195 14.1935L12.9287 14.5385C12.9429 14.5832 12.892 14.6202 12.8538 14.5929L12.5594 14.3824L12.265 14.5929C12.2268 14.6201 12.176 14.5832 12.1901 14.5385L12.2993 14.1935L12.0082 13.9784C11.9705 13.9505 11.9899 13.8908 12.0368 13.8904L12.3987 13.8877L12.5132 13.5443C12.528 13.4999 12.5908 13.4999 12.6056 13.5443Z" fill="#F5F5F5"/>
</svg>
